# xmcd
# 
# Track frame offsets:
#   150
#   16275
#   30097
#   46445
#   65337
#   86285
#   104300
#   121355
#   137280
#   152492
#   164372
#   179115
#   192682
#   206792
#   220780
# 
# Disc length: 3140 seconds
# 
# Revision: 3
# Processed by: cddbd v1.5.1PL2 Copyright (c) Steve Scherf et al.
# Submitted via: Synapstar 1.0 
# 
DISCID=c80c420f
DTITLE=Various Artist - SC7552
DYEAR=1900
DGENRE=Country
TTITLE0=John Denver - Thank God I'm A Country Boy
TTITLE1=Mark Chestnutt - Your Love Is A Miracle
TTITLE2=Eddie Rabbitt - Step By Step
TTITLE3=Dan Seals - Bop
TTITLE4=Judds, The - Young Love
TTITLE5=Reba McEntire - Rumor Has It
TTITLE6=Randy Travis - Deeper Than The Holler
TTITLE7=George Strait - Does Fort Worth Ever Cross Your Mind
TTITLE8=Shenandoah - Church On Cumberland Road
TTITLE9=Dave Dudley - Six Days On The Road
TTITLE10=Alabama - High Cotton
TTITLE11=Dolly Parton - Jolene
TTITLE12=Michael Martin Murphy - What's Forever For
TTITLE13=Dwight Yoakam - Streets Of Bakersfield
TTITLE14=Aaron Tippin - You've Got To Stand For Something
EXTD=MediaType: Karaoke CD+G Producer: Sound Choice
EXTT0=
EXTT1=
EXTT2=
EXTT3=
EXTT4=
EXTT5=
EXTT6=
EXTT7=
EXTT8=
EXTT9=
EXTT10=
EXTT11=
EXTT12=
EXTT13=
EXTT14=
PLAYORDER=
